<svg width="243" height="243" viewBox="0 0 243 243" fill="none" xmlns="http://www.w3.org/2000/svg">
<rect width="243" height="243" fill="#5865F0"/>
<path d="M165.607 81.1088C157.259 77.2533 148.455 74.53 139.409 73C138.165 75.2338 137.041 77.5287 136.04 79.8849C126.417 78.4161 116.611 78.4161 106.958 79.8849C105.956 77.5287 104.833 75.2338 103.588 73C94.542 74.5606 85.7082 77.2839 77.3602 81.1394C60.7854 105.864 56.2926 129.976 58.539 153.752C68.2532 160.973 79.1209 166.481 90.6564 170C93.2671 166.481 95.5741 162.717 97.5473 158.801C93.7831 157.393 90.1707 155.649 86.71 153.599C87.6207 152.926 88.5011 152.252 89.3814 151.579C109.72 161.218 133.277 161.218 153.616 151.579C154.496 152.283 155.377 152.987 156.287 153.599C152.827 155.649 149.184 157.393 145.42 158.831C147.393 162.748 149.7 166.481 152.311 170C163.877 166.481 174.744 161.004 184.458 153.752C187.099 126.182 179.966 102.314 165.577 81.1088H165.607ZM100.431 139.125C94.1778 139.125 88.9868 133.403 88.9868 126.365C88.9868 119.327 93.9652 113.544 100.401 113.544C106.836 113.544 111.967 119.327 111.845 126.365C111.724 133.403 106.806 139.125 100.431 139.125ZM142.627 139.125C136.343 139.125 131.213 133.403 131.213 126.365C131.213 119.327 136.191 113.544 142.627 113.544C149.063 113.544 154.162 119.327 154.041 126.365C153.92 133.403 149.002 139.125 142.627 139.125Z" fill="white"/>
</svg>
